<svg width="512" height="512" viewBox="0 0 512 512" fill="none" xmlns="http://www.w3.org/2000/svg">
  <rect width="512" height="512" rx="128" fill="url(#paint0_linear)"/>
  <g filter="url(#filter0_d)">
    <path d="M140 140H260C304.183 140 340 175.817 340 220C340 244.58 328.887 266.559 311.332 281.182L380 380H300L240 290H140V380H80V140H140ZM140 200V240H260C271.046 240 280 231.046 280 220C280 208.954 271.046 200 260 200H140Z" fill="white"/>
    <path d="M432 140H352L292 230L232 140H152L262 290L152 440H232L292 350L352 440H432L322 290L432 140Z" fill="white" fill-opacity="0.3"/>
  </g>
  <defs>
    <filter id="filter0_d" x="60" y="130" width="392" height="330" filterUnits="userSpaceOnUse" color-interpolation-filters="sRGB">
      <feFlood flood-opacity="0" result="BackgroundImageFix"/>
      <feColorMatrix in="SourceAlpha" type="matrix" values="0 0 0 0 0 0 0 0 0 0 0 0 0 0 0 0 0 0 127 0" result="hardAlpha"/>
      <feOffset dy="10"/>
      <feGaussianBlur stdDeviation="10"/>
      <feColorMatrix type="matrix" values="0 0 0 0 0 0 0 0 0 0 0 0 0 0 0 0 0 0 0.2 0"/>
      <feBlend mode="normal" in2="BackgroundImageFix" result="effect1_dropShadow"/>
      <feBlend mode="normal" in="SourceGraphic" in2="effect1_dropShadow" result="shape"/>
    </filter>
    <linearGradient id="paint0_linear" x1="0" y1="0" x2="512" y2="512" gradientUnits="userSpaceOnUse">
      <stop stop-color="#7F13EC"/>
      <stop offset="1" stop-color="#3B82F6"/>
    </linearGradient>
  </defs>
</svg>
