<svg width="100" height="100" viewBox="0 0 100 100" fill="none" xmlns="http://www.w3.org/2000/svg">
  <circle cx="50" cy="50" r="50" fill="#FFF7ED"/>
  <path d="M50 85C65 85 78 75 82 62C75 55 63 50 50 50C37 50 25 55 18 62C22 75 35 85 50 85Z" fill="#EA580C"/>
  <circle cx="50" cy="40" r="20" fill="#FDBA74"/>
  <path d="M30 25C30 25 35 20 50 20C65 20 70 25 70 25V45C70 45 65 50 50 50C35 50 30 45 30 45V25Z" fill="#312E81"/>
  <circle cx="43" cy="38" r="2" fill="white"/>
  <circle cx="57" cy="38" r="2" fill="white"/>
</svg>
