<svg width="100" height="100" viewBox="0 0 100 100" fill="none" xmlns="http://www.w3.org/2000/svg">
  <circle cx="50" cy="50" r="50" fill="#DCFCE7"/>
  <path d="M50 85C65 85 78 75 82 62C75 55 63 50 50 50C37 50 25 55 18 62C22 75 35 85 50 85Z" fill="#059669"/>
  <circle cx="50" cy="40" r="20" fill="#92400E"/>
  <path d="M30 35C30 25 70 25 70 35C70 45 30 45 30 35Z" fill="#1F2937"/>
  <circle cx="43" cy="38" r="2" fill="white"/>
  <circle cx="57" cy="38" r="2" fill="white"/>
  <path d="M40 45C40 52 60 52 60 45" fill="#1F2937"/>
</svg>
